<svg xmlns="http://www.w3.org/2000/svg" xmlns:xlink="http://www.w3.org/1999/xlink" width="48" zoomAndPan="magnify" viewBox="0 0 36 36.000001" height="48" preserveAspectRatio="xMidYMid meet" version="1.0"><defs><g/><clipPath id="53de9544e6"><path d="M 0.488281 0 L 35.511719 0 L 35.511719 35.027344 L 0.488281 35.027344 Z M 0.488281 0 " clip-rule="nonzero"/></clipPath><clipPath id="7d8e0f5259"><path d="M 0.488281 7 L 35.511719 7 L 35.511719 27.949219 L 0.488281 27.949219 Z M 0.488281 7 " clip-rule="nonzero"/></clipPath></defs><g clip-path="url(#53de9544e6)"><path fill="#ffffff" d="M 0.488281 0 L 35.511719 0 L 35.511719 35.027344 L 0.488281 35.027344 Z M 0.488281 0 " fill-opacity="1" fill-rule="nonzero"/><path fill="#ffffff" d="M 0.488281 0 L 35.511719 0 L 35.511719 35.027344 L 0.488281 35.027344 Z M 0.488281 0 " fill-opacity="1" fill-rule="nonzero"/></g><g clip-path="url(#7d8e0f5259)"><path fill="#000000" d="M 17.914062 7.855469 C 19.253906 8.707031 22.339844 10.652344 22.390625 10.542969 C 22.433594 10.4375 20.859375 8.800781 20.0625 7.984375 C 19.421875 7.933594 18.691406 7.890625 17.914062 7.855469 Z M 27.511719 12.753906 C 27.753906 12.765625 28 12.773438 28.242188 12.789062 C 27.675781 12.199219 24.171875 8.617188 22.46875 8.25 C 22.3125 8.21875 22.082031 8.183594 21.789062 8.148438 C 23.207031 9.273438 26.71875 12.078125 27.511719 12.753906 Z M 33.183594 16.851562 C 33.277344 17.023438 33.34375 17.273438 33.335938 17.628906 C 33.328125 18.003906 33.234375 18.425781 33.125 18.796875 C 33.640625 18.191406 33.964844 17.425781 34.109375 17.042969 C 34.105469 17.023438 34.105469 17.003906 34.101562 16.988281 C 33.960938 16.925781 33.6875 16.855469 33.183594 16.851562 Z M 32.613281 16.914062 C 32.570312 16.914062 32.53125 16.898438 32.5 16.878906 C 32.097656 16.910156 31.605469 16.976562 31.003906 17.085938 C 29.847656 17.296875 28.765625 17.765625 27.882812 18.277344 C 26.621094 19.007812 25.777344 19.746094 25.761719 19.917969 C 25.8125 19.949219 27.078125 19.910156 28.425781 19.855469 C 29.917969 19.796875 31.488281 19.667969 31.863281 19.609375 C 31.867188 19.609375 31.878906 19.605469 31.894531 19.601562 C 32.085938 19.5625 32.265625 19.492188 32.429688 19.394531 C 32.589844 19 32.867188 18.238281 32.882812 17.621094 C 32.898438 16.925781 32.613281 16.914062 32.613281 16.914062 Z M 1.484375 17.476562 C 1.484375 17.476562 3.078125 17.882812 4.535156 18.40625 C 6.042969 18.945312 7.414062 19.601562 7.539062 19.808594 C 7.78125 20.214844 7.152344 20.476562 6.941406 20.484375 C 6.730469 20.492188 2.160156 20.585938 2.160156 20.445312 C 2.160156 20.304688 2.550781 20.136719 2.894531 20.15625 C 3.238281 20.175781 7.113281 20.117188 7.054688 19.917969 C 6.992188 19.71875 4.027344 18.421875 3.035156 18.105469 C 2.050781 17.785156 1.484375 17.476562 1.484375 17.476562 Z M 30.960938 21.414062 C 31.273438 21.414062 31.554688 21.535156 31.757812 21.738281 C 31.960938 21.941406 32.089844 22.21875 32.089844 22.527344 C 32.089844 22.832031 31.960938 23.109375 31.757812 23.3125 C 31.554688 23.511719 31.273438 23.636719 30.960938 23.636719 C 30.648438 23.636719 30.367188 23.511719 30.164062 23.3125 C 29.960938 23.109375 29.832031 22.832031 29.832031 22.527344 C 29.832031 22.21875 29.960938 21.941406 30.164062 21.738281 C 30.367188 21.535156 30.648438 21.414062 30.960938 21.414062 Z M 27.539062 19.613281 C 27.414062 19.617188 27.308594 19.519531 27.300781 19.398438 C 27.296875 19.273438 27.394531 19.167969 27.519531 19.160156 C 27.53125 19.160156 31.339844 18.996094 31.667969 18.765625 C 31.953125 18.5625 31.972656 17.535156 31.976562 17.53125 C 31.976562 17.40625 32.082031 17.308594 32.207031 17.308594 C 32.332031 17.3125 32.433594 17.414062 32.429688 17.539062 C 32.429688 17.542969 32.410156 18.796875 31.929688 19.132812 C 31.492188 19.441406 27.550781 19.609375 27.539062 19.613281 Z M 31.054688 22.191406 C 30.953125 22.089844 30.808594 22.027344 30.652344 22.027344 C 30.496094 22.027344 30.351562 22.089844 30.246094 22.191406 C 30.144531 22.292969 30.082031 22.433594 30.082031 22.589844 C 30.082031 22.746094 30.144531 22.886719 30.246094 22.988281 C 30.351562 23.089844 30.496094 23.152344 30.652344 23.152344 C 30.808594 23.152344 30.953125 23.089844 31.054688 22.988281 C 31.160156 22.886719 31.222656 22.746094 31.222656 22.589844 C 31.222656 22.433594 31.160156 22.292969 31.054688 22.191406 Z M 6.378906 22.734375 C 6.378906 22.734375 8.03125 20.863281 8.859375 20.703125 C 9.6875 20.542969 23.3125 20.183594 25.25 20.960938 C 27.1875 21.738281 30.011719 24.824219 29.871094 25.464844 C 29.847656 25.578125 29.816406 25.671875 29.785156 25.75 L 34.53125 25.71875 C 34.625 25.71875 34.753906 25.40625 34.835938 25.089844 L 34.839844 25.078125 C 34.863281 24.972656 34.882812 24.871094 34.890625 24.777344 C 34.898438 24.71875 34.898438 24.664062 34.894531 24.621094 L 33.082031 24.609375 C 32.914062 24.609375 30.457031 24.472656 30.457031 24.308594 C 30.457031 24.144531 32.914062 24.007812 33.082031 24.007812 L 34.078125 24.015625 C 34.144531 23.1875 34.332031 20.574219 34.210938 18.261719 C 33.761719 19.0625 33.042969 19.976562 32.023438 20.191406 C 32.011719 20.191406 31.988281 20.199219 31.953125 20.203125 C 31.566406 20.261719 29.960938 20.394531 28.449219 20.457031 C 26.8125 20.519531 25.25 20.457031 25.164062 20.042969 C 25.160156 20.023438 25.15625 20.003906 25.15625 19.984375 C 25.152344 19.90625 25.183594 19.832031 25.234375 19.773438 C 25.488281 19.316406 26.355469 18.46875 27.578125 17.757812 C 28.511719 17.214844 29.660156 16.71875 30.894531 16.496094 C 32.503906 16.203125 33.460938 16.253906 34.015625 16.378906 C 33.851562 15.4375 33.589844 14.707031 33.1875 14.40625 C 31.757812 13.34375 27.578125 12.972656 25.5 13.378906 C 25.34375 13.425781 25.5 13.359375 25.050781 13.535156 C 24.597656 13.710938 21.671875 18.804688 21.367188 18.804688 C 21.066406 18.804688 22.578125 15.761719 22.742188 15.242188 C 22.839844 14.933594 22.992188 14.484375 22.953125 14.121094 C 22.851562 14.089844 22.8125 14.046875 22.8125 14.046875 C 22.8125 14.046875 22.792969 13.96875 21.703125 13.789062 C 20.613281 13.609375 10.78125 13.628906 10.097656 13.90625 C 9.410156 14.1875 9.53125 14.722656 9.691406 15.242188 C 9.855469 15.761719 11.367188 18.804688 11.066406 18.804688 C 10.761719 18.804688 8.441406 14.425781 7.675781 14.125 C 6.90625 13.828125 2.617188 13.269531 2.617188 13.269531 C 2.617188 13.269531 7.898438 13.410156 8.371094 13.359375 C 8.84375 13.308594 9.15625 12.722656 9.5 12.703125 C 9.691406 12.691406 14.160156 12.703125 18.0625 12.714844 C 17.132812 11.628906 14.273438 8.289062 14.050781 7.953125 C 14.007812 7.878906 13.980469 7.816406 13.96875 7.753906 C 10.703125 7.75 7.515625 7.949219 6.421875 8.589844 C 4.09375 9.957031 2.183594 11.894531 2.183594 11.894531 C 2.183594 11.894531 4.265625 8.648438 6.847656 7.753906 C 9.429688 6.855469 21.136719 6.796875 23.984375 7.65625 C 26.828125 8.511719 29.472656 12.335938 29.472656 12.335938 L 29.53125 12.398438 C 29.757812 12.039062 30.164062 11.492188 30.660156 11.253906 C 31.425781 10.886719 35.070312 10.804688 35.25 11.234375 C 35.429688 11.664062 34.332031 12.996094 33.34375 13.027344 C 32.351562 13.054688 30.664062 12.789062 30.183594 12.957031 C 30.25 12.964844 30.320312 12.976562 30.382812 12.984375 C 33.007812 13.351562 34.175781 14.007812 34.4375 14.960938 C 34.535156 15.320312 34.84375 16.394531 34.9375 18 C 35.070312 20.234375 35.042969 23.101562 35.027344 24.023438 C 35.289062 24.027344 35.433594 24.191406 35.488281 24.457031 C 35.507812 24.566406 35.511719 24.691406 35.5 24.828125 C 35.488281 24.953125 35.464844 25.089844 35.429688 25.226562 L 35.425781 25.242188 C 35.285156 25.777344 34.949219 26.316406 34.535156 26.320312 L 34.511719 26.320312 C 34.480469 26.734375 34.40625 27.4375 34.28125 27.535156 C 34.25 27.558594 34.070312 27.578125 33.796875 27.589844 L 33.792969 27.589844 C 33.027344 27.632812 31.515625 27.636719 30.367188 27.632812 C 22.15625 27.726562 1.984375 27.9375 1.339844 27.730469 C 0.714844 27.535156 19.5 27.265625 28.265625 27.152344 C 28.261719 27.132812 28.261719 27.113281 28.265625 27.097656 C 28.292969 26.914062 28.25 26.464844 28.21875 26.164062 C 24.617188 26.183594 13.671875 26.230469 1.964844 26.265625 L 1.964844 26.269531 C 1.257812 26.320312 0.503906 26.347656 0.496094 26.21875 C 0.488281 26.085938 1.289062 25.941406 2.007812 25.765625 C 15.519531 25.625 27.734375 25.464844 27.851562 25.28125 C 27.914062 25.183594 27.792969 24.953125 27.5625 24.65625 C 23.578125 24.59375 9.15625 24.285156 8.507812 24.007812 C 8.507812 24.007812 22.277344 23.75 26.703125 23.722656 C 26.40625 23.433594 26.085938 23.136719 25.769531 22.867188 C 21.445312 22.851562 8.910156 22.519531 8.527344 22.355469 C 8.148438 22.195312 20.652344 22.308594 25.054688 22.292969 C 24.675781 22.011719 24.347656 21.804688 24.136719 21.738281 C 23.25 21.460938 9.0625 21.042969 8.539062 21.242188 C 8.011719 21.441406 6.660156 22.894531 6.519531 22.8125 C 6.378906 22.734375 6.378906 22.734375 6.378906 22.734375 " fill-opacity="1" fill-rule="evenodd"/></g><g fill="#ffffff" fill-opacity="1"><g transform="translate(3.267553, 4.978212)"><g><path d="M 0.859375 -2.171875 L 0.015625 -2.171875 L 0.015625 -2.390625 L 1.9375 -2.390625 L 1.9375 -2.171875 L 1.109375 -2.171875 L 1.109375 0 L 0.859375 0 Z M 0.859375 -2.171875 "/></g></g></g><g fill="#ffffff" fill-opacity="1"><g transform="translate(5.222573, 4.978212)"><g><path d="M 0.34375 -1.796875 L 0.578125 -1.796875 L 0.578125 0 L 0.34375 0 Z M 0.703125 -2.484375 L 1.03125 -2.484375 L 0.484375 -2.0625 L 0.234375 -2.0625 Z M 0.703125 -2.484375 "/></g></g></g><g fill="#ffffff" fill-opacity="1"><g transform="translate(6.138778, 4.978212)"><g><path d="M 1.28125 -0.109375 C 1.238281 -0.0664062 1.179688 -0.0351562 1.109375 -0.015625 C 1.046875 0.00390625 0.976562 0.015625 0.90625 0.015625 C 0.738281 0.015625 0.609375 -0.0234375 0.515625 -0.109375 C 0.421875 -0.203125 0.375 -0.332031 0.375 -0.5 L 0.375 -1.59375 L 0.0625 -1.59375 L 0.0625 -1.796875 L 0.375 -1.796875 L 0.375 -2.1875 L 0.625 -2.1875 L 0.625 -1.796875 L 1.171875 -1.796875 L 1.171875 -1.59375 L 0.625 -1.59375 L 0.625 -0.515625 C 0.625 -0.410156 0.648438 -0.328125 0.703125 -0.265625 C 0.753906 -0.210938 0.832031 -0.1875 0.9375 -0.1875 C 0.976562 -0.1875 1.019531 -0.191406 1.0625 -0.203125 C 1.113281 -0.222656 1.160156 -0.25 1.203125 -0.28125 Z M 1.28125 -0.109375 "/></g></g></g><g fill="#ffffff" fill-opacity="1"><g transform="translate(7.521599, 4.978212)"><g><path d="M 1.953125 -1.796875 L 1.953125 0 L 1.71875 0 L 1.71875 -0.328125 C 1.65625 -0.210938 1.566406 -0.125 1.453125 -0.0625 C 1.347656 -0.0078125 1.222656 0.015625 1.078125 0.015625 C 0.835938 0.015625 0.648438 -0.046875 0.515625 -0.171875 C 0.378906 -0.304688 0.3125 -0.5 0.3125 -0.75 L 0.3125 -1.796875 L 0.5625 -1.796875 L 0.5625 -0.78125 C 0.5625 -0.59375 0.609375 -0.445312 0.703125 -0.34375 C 0.796875 -0.25 0.925781 -0.203125 1.09375 -0.203125 C 1.289062 -0.203125 1.441406 -0.257812 1.546875 -0.375 C 1.648438 -0.488281 1.703125 -0.648438 1.703125 -0.859375 L 1.703125 -1.796875 Z M 1.953125 -1.796875 "/></g></g></g><g fill="#ffffff" fill-opacity="1"><g transform="translate(9.813808, 4.978212)"><g><path d="M 0.34375 -2.53125 L 0.578125 -2.53125 L 0.578125 0 L 0.34375 0 Z M 0.34375 -2.53125 "/></g></g></g><g fill="#ffffff" fill-opacity="1"><g transform="translate(10.730013, 4.978212)"><g><path d="M 1.0625 0.015625 C 0.894531 0.015625 0.738281 -0.0195312 0.59375 -0.09375 C 0.457031 -0.175781 0.347656 -0.285156 0.265625 -0.421875 C 0.191406 -0.566406 0.15625 -0.722656 0.15625 -0.890625 C 0.15625 -1.066406 0.191406 -1.222656 0.265625 -1.359375 C 0.347656 -1.503906 0.457031 -1.613281 0.59375 -1.6875 C 0.738281 -1.769531 0.894531 -1.8125 1.0625 -1.8125 C 1.238281 -1.8125 1.394531 -1.769531 1.53125 -1.6875 C 1.675781 -1.613281 1.785156 -1.503906 1.859375 -1.359375 C 1.941406 -1.222656 1.984375 -1.066406 1.984375 -0.890625 C 1.984375 -0.722656 1.941406 -0.566406 1.859375 -0.421875 C 1.785156 -0.285156 1.675781 -0.175781 1.53125 -0.09375 C 1.394531 -0.0195312 1.238281 0.015625 1.0625 0.015625 Z M 1.0625 -0.203125 C 1.195312 -0.203125 1.3125 -0.226562 1.40625 -0.28125 C 1.507812 -0.34375 1.585938 -0.425781 1.640625 -0.53125 C 1.703125 -0.632812 1.734375 -0.753906 1.734375 -0.890625 C 1.734375 -1.023438 1.703125 -1.144531 1.640625 -1.25 C 1.585938 -1.363281 1.507812 -1.445312 1.40625 -1.5 C 1.3125 -1.5625 1.195312 -1.59375 1.0625 -1.59375 C 0.9375 -1.59375 0.820312 -1.5625 0.71875 -1.5 C 0.625 -1.445312 0.546875 -1.363281 0.484375 -1.25 C 0.429688 -1.144531 0.40625 -1.023438 0.40625 -0.890625 C 0.40625 -0.753906 0.429688 -0.632812 0.484375 -0.53125 C 0.546875 -0.425781 0.625 -0.34375 0.71875 -0.28125 C 0.820312 -0.226562 0.9375 -0.203125 1.0625 -0.203125 Z M 1.0625 -0.203125 "/></g></g></g><g fill="#ffffff" fill-opacity="1"><g transform="translate(12.865548, 4.978212)"><g/></g></g><g fill="#ffffff" fill-opacity="1"><g transform="translate(13.757911, 4.978212)"><g><path d="M 0.8125 0.015625 C 0.664062 0.015625 0.523438 -0.00390625 0.390625 -0.046875 C 0.265625 -0.0859375 0.164062 -0.140625 0.09375 -0.203125 L 0.203125 -0.390625 C 0.273438 -0.335938 0.367188 -0.289062 0.484375 -0.25 C 0.597656 -0.207031 0.710938 -0.1875 0.828125 -0.1875 C 0.992188 -0.1875 1.113281 -0.210938 1.1875 -0.265625 C 1.269531 -0.316406 1.3125 -0.390625 1.3125 -0.484375 C 1.3125 -0.546875 1.289062 -0.597656 1.25 -0.640625 C 1.207031 -0.679688 1.148438 -0.707031 1.078125 -0.71875 C 1.015625 -0.738281 0.929688 -0.757812 0.828125 -0.78125 C 0.679688 -0.8125 0.5625 -0.835938 0.46875 -0.859375 C 0.382812 -0.890625 0.3125 -0.9375 0.25 -1 C 0.1875 -1.070312 0.15625 -1.171875 0.15625 -1.296875 C 0.15625 -1.441406 0.21875 -1.5625 0.34375 -1.65625 C 0.46875 -1.757812 0.640625 -1.8125 0.859375 -1.8125 C 0.972656 -1.8125 1.085938 -1.796875 1.203125 -1.765625 C 1.328125 -1.734375 1.425781 -1.691406 1.5 -1.640625 L 1.390625 -1.4375 C 1.242188 -1.539062 1.066406 -1.59375 0.859375 -1.59375 C 0.703125 -1.59375 0.582031 -1.566406 0.5 -1.515625 C 0.425781 -1.460938 0.390625 -1.390625 0.390625 -1.296875 C 0.390625 -1.234375 0.410156 -1.179688 0.453125 -1.140625 C 0.503906 -1.097656 0.5625 -1.066406 0.625 -1.046875 C 0.6875 -1.023438 0.78125 -1.003906 0.90625 -0.984375 C 1.039062 -0.960938 1.148438 -0.9375 1.234375 -0.90625 C 1.328125 -0.875 1.40625 -0.828125 1.46875 -0.765625 C 1.53125 -0.703125 1.5625 -0.613281 1.5625 -0.5 C 1.5625 -0.34375 1.492188 -0.21875 1.359375 -0.125 C 1.234375 -0.03125 1.050781 0.015625 0.8125 0.015625 Z M 0.8125 0.015625 "/></g></g></g><g fill="#ffffff" fill-opacity="1"><g transform="translate(15.423426, 4.978212)"><g><path d="M 1.890625 -0.828125 L 0.40625 -0.828125 C 0.414062 -0.640625 0.484375 -0.488281 0.609375 -0.375 C 0.742188 -0.257812 0.910156 -0.203125 1.109375 -0.203125 C 1.210938 -0.203125 1.3125 -0.21875 1.40625 -0.25 C 1.5 -0.289062 1.582031 -0.351562 1.65625 -0.4375 L 1.78125 -0.28125 C 1.707031 -0.1875 1.609375 -0.113281 1.484375 -0.0625 C 1.367188 -0.0078125 1.238281 0.015625 1.09375 0.015625 C 0.914062 0.015625 0.753906 -0.0195312 0.609375 -0.09375 C 0.460938 -0.175781 0.347656 -0.285156 0.265625 -0.421875 C 0.191406 -0.566406 0.15625 -0.722656 0.15625 -0.890625 C 0.15625 -1.066406 0.191406 -1.222656 0.265625 -1.359375 C 0.347656 -1.503906 0.453125 -1.613281 0.578125 -1.6875 C 0.710938 -1.769531 0.863281 -1.8125 1.03125 -1.8125 C 1.195312 -1.8125 1.34375 -1.769531 1.46875 -1.6875 C 1.601562 -1.613281 1.707031 -1.503906 1.78125 -1.359375 C 1.863281 -1.222656 1.90625 -1.066406 1.90625 -0.890625 Z M 1.03125 -1.59375 C 0.851562 -1.59375 0.707031 -1.535156 0.59375 -1.421875 C 0.476562 -1.316406 0.414062 -1.175781 0.40625 -1 L 1.671875 -1 C 1.648438 -1.175781 1.582031 -1.316406 1.46875 -1.421875 C 1.351562 -1.535156 1.207031 -1.59375 1.03125 -1.59375 Z M 1.03125 -1.59375 "/></g></g></g><g fill="#ffffff" fill-opacity="1"><g transform="translate(17.480624, 4.978212)"><g><path d="M 1.078125 0.015625 C 0.898438 0.015625 0.738281 -0.0195312 0.59375 -0.09375 C 0.457031 -0.175781 0.347656 -0.285156 0.265625 -0.421875 C 0.191406 -0.566406 0.15625 -0.722656 0.15625 -0.890625 C 0.15625 -1.066406 0.191406 -1.222656 0.265625 -1.359375 C 0.347656 -1.503906 0.457031 -1.613281 0.59375 -1.6875 C 0.738281 -1.769531 0.898438 -1.8125 1.078125 -1.8125 C 1.234375 -1.8125 1.367188 -1.78125 1.484375 -1.71875 C 1.609375 -1.65625 1.707031 -1.566406 1.78125 -1.453125 L 1.59375 -1.328125 C 1.539062 -1.421875 1.46875 -1.488281 1.375 -1.53125 C 1.28125 -1.570312 1.179688 -1.59375 1.078125 -1.59375 C 0.953125 -1.59375 0.835938 -1.5625 0.734375 -1.5 C 0.628906 -1.445312 0.546875 -1.363281 0.484375 -1.25 C 0.429688 -1.144531 0.40625 -1.023438 0.40625 -0.890625 C 0.40625 -0.753906 0.429688 -0.632812 0.484375 -0.53125 C 0.546875 -0.425781 0.628906 -0.34375 0.734375 -0.28125 C 0.835938 -0.226562 0.953125 -0.203125 1.078125 -0.203125 C 1.179688 -0.203125 1.28125 -0.222656 1.375 -0.265625 C 1.46875 -0.304688 1.539062 -0.367188 1.59375 -0.453125 L 1.78125 -0.34375 C 1.707031 -0.21875 1.609375 -0.125 1.484375 -0.0625 C 1.367188 -0.0078125 1.234375 0.015625 1.078125 0.015625 Z M 1.078125 0.015625 "/></g></g></g><g fill="#ffffff" fill-opacity="1"><g transform="translate(19.398178, 4.978212)"><g><path d="M 1.953125 -1.796875 L 1.953125 0 L 1.71875 0 L 1.71875 -0.328125 C 1.65625 -0.210938 1.566406 -0.125 1.453125 -0.0625 C 1.347656 -0.0078125 1.222656 0.015625 1.078125 0.015625 C 0.835938 0.015625 0.648438 -0.046875 0.515625 -0.171875 C 0.378906 -0.304688 0.3125 -0.5 0.3125 -0.75 L 0.3125 -1.796875 L 0.5625 -1.796875 L 0.5625 -0.78125 C 0.5625 -0.59375 0.609375 -0.445312 0.703125 -0.34375 C 0.796875 -0.25 0.925781 -0.203125 1.09375 -0.203125 C 1.289062 -0.203125 1.441406 -0.257812 1.546875 -0.375 C 1.648438 -0.488281 1.703125 -0.648438 1.703125 -0.859375 L 1.703125 -1.796875 Z M 1.953125 -1.796875 "/></g></g></g><g fill="#ffffff" fill-opacity="1"><g transform="translate(21.690387, 4.978212)"><g><path d="M 1.25 -1.8125 C 1.476562 -1.8125 1.65625 -1.742188 1.78125 -1.609375 C 1.914062 -1.472656 1.984375 -1.28125 1.984375 -1.03125 L 1.984375 0 L 1.75 0 L 1.75 -1.015625 C 1.75 -1.203125 1.703125 -1.34375 1.609375 -1.4375 C 1.515625 -1.539062 1.378906 -1.59375 1.203125 -1.59375 C 1.015625 -1.59375 0.863281 -1.535156 0.75 -1.421875 C 0.632812 -1.304688 0.578125 -1.144531 0.578125 -0.9375 L 0.578125 0 L 0.34375 0 L 0.34375 -1.796875 L 0.5625 -1.796875 L 0.5625 -1.46875 C 0.632812 -1.570312 0.726562 -1.65625 0.84375 -1.71875 C 0.957031 -1.78125 1.09375 -1.8125 1.25 -1.8125 Z M 1.25 -1.8125 "/></g></g></g><g fill="#ffffff" fill-opacity="1"><g transform="translate(23.996221, 4.978212)"><g><path d="M 1.96875 -2.53125 L 1.96875 0 L 1.734375 0 L 1.734375 -0.359375 C 1.660156 -0.234375 1.566406 -0.140625 1.453125 -0.078125 C 1.335938 -0.015625 1.203125 0.015625 1.046875 0.015625 C 0.878906 0.015625 0.726562 -0.0195312 0.59375 -0.09375 C 0.457031 -0.175781 0.347656 -0.285156 0.265625 -0.421875 C 0.191406 -0.554688 0.15625 -0.710938 0.15625 -0.890625 C 0.15625 -1.066406 0.191406 -1.222656 0.265625 -1.359375 C 0.347656 -1.503906 0.457031 -1.613281 0.59375 -1.6875 C 0.726562 -1.769531 0.878906 -1.8125 1.046875 -1.8125 C 1.191406 -1.8125 1.320312 -1.78125 1.4375 -1.71875 C 1.5625 -1.65625 1.660156 -1.566406 1.734375 -1.453125 L 1.734375 -2.53125 Z M 1.0625 -0.203125 C 1.1875 -0.203125 1.300781 -0.226562 1.40625 -0.28125 C 1.507812 -0.34375 1.585938 -0.425781 1.640625 -0.53125 C 1.703125 -0.632812 1.734375 -0.753906 1.734375 -0.890625 C 1.734375 -1.023438 1.703125 -1.144531 1.640625 -1.25 C 1.585938 -1.363281 1.507812 -1.445312 1.40625 -1.5 C 1.300781 -1.5625 1.1875 -1.59375 1.0625 -1.59375 C 0.9375 -1.59375 0.820312 -1.5625 0.71875 -1.5 C 0.625 -1.445312 0.546875 -1.363281 0.484375 -1.25 C 0.429688 -1.144531 0.40625 -1.023438 0.40625 -0.890625 C 0.40625 -0.753906 0.429688 -0.632812 0.484375 -0.53125 C 0.546875 -0.425781 0.625 -0.34375 0.71875 -0.28125 C 0.820312 -0.226562 0.9375 -0.203125 1.0625 -0.203125 Z M 1.0625 -0.203125 "/></g></g></g><g fill="#ffffff" fill-opacity="1"><g transform="translate(26.305463, 4.978212)"><g><path d="M 0.96875 -1.8125 C 1.195312 -1.8125 1.375 -1.75 1.5 -1.625 C 1.625 -1.507812 1.6875 -1.335938 1.6875 -1.109375 L 1.6875 0 L 1.453125 0 L 1.453125 -0.28125 C 1.398438 -0.1875 1.320312 -0.113281 1.21875 -0.0625 C 1.113281 -0.0078125 0.988281 0.015625 0.84375 0.015625 C 0.644531 0.015625 0.484375 -0.03125 0.359375 -0.125 C 0.242188 -0.21875 0.1875 -0.34375 0.1875 -0.5 C 0.1875 -0.65625 0.238281 -0.78125 0.34375 -0.875 C 0.457031 -0.96875 0.632812 -1.015625 0.875 -1.015625 L 1.453125 -1.015625 L 1.453125 -1.125 C 1.453125 -1.28125 1.40625 -1.394531 1.3125 -1.46875 C 1.226562 -1.550781 1.101562 -1.59375 0.9375 -1.59375 C 0.820312 -1.59375 0.710938 -1.570312 0.609375 -1.53125 C 0.503906 -1.5 0.414062 -1.453125 0.34375 -1.390625 L 0.234375 -1.5625 C 0.328125 -1.632812 0.4375 -1.691406 0.5625 -1.734375 C 0.6875 -1.785156 0.820312 -1.8125 0.96875 -1.8125 Z M 0.875 -0.171875 C 1.007812 -0.171875 1.125 -0.203125 1.21875 -0.265625 C 1.320312 -0.328125 1.398438 -0.414062 1.453125 -0.53125 L 1.453125 -0.828125 L 0.890625 -0.828125 C 0.578125 -0.828125 0.421875 -0.722656 0.421875 -0.515625 C 0.421875 -0.410156 0.460938 -0.328125 0.546875 -0.265625 C 0.628906 -0.203125 0.738281 -0.171875 0.875 -0.171875 Z M 0.875 -0.171875 "/></g></g></g><g fill="#ffffff" fill-opacity="1"><g transform="translate(28.314979, 4.978212)"><g><path d="M 0.5625 -1.4375 C 0.625 -1.5625 0.707031 -1.65625 0.8125 -1.71875 C 0.925781 -1.78125 1.066406 -1.8125 1.234375 -1.8125 L 1.234375 -1.5625 L 1.1875 -1.578125 C 1 -1.578125 0.847656 -1.515625 0.734375 -1.390625 C 0.628906 -1.273438 0.578125 -1.113281 0.578125 -0.90625 L 0.578125 0 L 0.34375 0 L 0.34375 -1.796875 L 0.5625 -1.796875 Z M 0.5625 -1.4375 "/></g></g></g><g fill="#ffffff" fill-opacity="1"><g transform="translate(29.680767, 4.978212)"><g><path d="M 0.34375 -1.796875 L 0.578125 -1.796875 L 0.578125 0 L 0.34375 0 Z M 0.46875 -2.1875 C 0.414062 -2.1875 0.367188 -2.203125 0.328125 -2.234375 C 0.296875 -2.265625 0.28125 -2.304688 0.28125 -2.359375 C 0.28125 -2.398438 0.296875 -2.4375 0.328125 -2.46875 C 0.367188 -2.507812 0.414062 -2.53125 0.46875 -2.53125 C 0.507812 -2.53125 0.546875 -2.507812 0.578125 -2.46875 C 0.617188 -2.4375 0.640625 -2.398438 0.640625 -2.359375 C 0.640625 -2.304688 0.617188 -2.265625 0.578125 -2.234375 C 0.546875 -2.203125 0.507812 -2.1875 0.46875 -2.1875 Z M 0.46875 -2.1875 "/></g></g></g><g fill="#ffffff" fill-opacity="1"><g transform="translate(30.596971, 4.978212)"><g><path d="M 1.0625 0.015625 C 0.894531 0.015625 0.738281 -0.0195312 0.59375 -0.09375 C 0.457031 -0.175781 0.347656 -0.285156 0.265625 -0.421875 C 0.191406 -0.566406 0.15625 -0.722656 0.15625 -0.890625 C 0.15625 -1.066406 0.191406 -1.222656 0.265625 -1.359375 C 0.347656 -1.503906 0.457031 -1.613281 0.59375 -1.6875 C 0.738281 -1.769531 0.894531 -1.8125 1.0625 -1.8125 C 1.238281 -1.8125 1.394531 -1.769531 1.53125 -1.6875 C 1.675781 -1.613281 1.785156 -1.503906 1.859375 -1.359375 C 1.941406 -1.222656 1.984375 -1.066406 1.984375 -0.890625 C 1.984375 -0.722656 1.941406 -0.566406 1.859375 -0.421875 C 1.785156 -0.285156 1.675781 -0.175781 1.53125 -0.09375 C 1.394531 -0.0195312 1.238281 0.015625 1.0625 0.015625 Z M 1.0625 -0.203125 C 1.195312 -0.203125 1.3125 -0.226562 1.40625 -0.28125 C 1.507812 -0.34375 1.585938 -0.425781 1.640625 -0.53125 C 1.703125 -0.632812 1.734375 -0.753906 1.734375 -0.890625 C 1.734375 -1.023438 1.703125 -1.144531 1.640625 -1.25 C 1.585938 -1.363281 1.507812 -1.445312 1.40625 -1.5 C 1.3125 -1.5625 1.195312 -1.59375 1.0625 -1.59375 C 0.9375 -1.59375 0.820312 -1.5625 0.71875 -1.5 C 0.625 -1.445312 0.546875 -1.363281 0.484375 -1.25 C 0.429688 -1.144531 0.40625 -1.023438 0.40625 -0.890625 C 0.40625 -0.753906 0.429688 -0.632812 0.484375 -0.53125 C 0.546875 -0.425781 0.625 -0.34375 0.71875 -0.28125 C 0.820312 -0.226562 0.9375 -0.203125 1.0625 -0.203125 Z M 1.0625 -0.203125 "/></g></g></g></svg>